# xmcd
#
# Track frame offsets: 
#        150
#        12895
#        25783
#        34948
#        46680
#        59091
#        71792
#        84762
#        95095
#        107629
#        118574
#        130245
#        142952
#        152193
#        164093
#        175055
#        186712
#        195013
#        206544
#        215588
#        226610
#        238397
#        248778
#        259901
#
# Disc length: 3593 seconds
#
# Revision: 1
# Processed by: cddbd v1.5.2PL0 Copyright (c) Steve Scherf et al.
# Submitted via: ExactAudioCopy v1.1
#
DISCID=540e0718
DTITLE=Porter Wagoner - The First Ten Years 1952-62_CD1
DYEAR=2015
DGENRE=Country
TTITLE0=A Satisfied Mind
TTITLE1=My Bonfire
TTITLE2=I Like Girls
TTITLE3=Ivory Tower
TTITLE4=Company's Comin'
TTITLE5=Born To Lose
TTITLE6=Midnight
TTITLE7=That's It
TTITLE8=I Guess I'm Crazy (For Loving You)
TTITLE9=I'm Stepping Out Tonight
TTITLE10=Living In The Past
TTITLE11=Tricks Of The Trade
TTITLE12=Uncle Pen
TTITLE13=One Way Ticket To The Blues
TTITLE14=My Name Is Mud
TTITLE15=I Thought I Heard You Calling My Name
TTITLE16=Tennessee Border
TTITLE17=I Went Out Of My Way
TTITLE18=Sugarfoot Rag
TTITLE19=Cryin' Loud
TTITLE20=Misery Loves Company
TTITLE21=I Gotta Find Someone (Who Loves Like I Do)
TTITLE22=Take Good Care Of Her
TTITLE23=I Wonder Where You Are Tonight
EXTD=
EXTT0=
EXTT1=
EXTT2=
EXTT3=
EXTT4=
EXTT5=
EXTT6=
EXTT7=
EXTT8=
EXTT9=
EXTT10=
EXTT11=
EXTT12=
EXTT13=
EXTT14=
EXTT15=
EXTT16=
EXTT17=
EXTT18=
EXTT19=
EXTT20=
EXTT21=
EXTT22=
EXTT23=
PLAYORDER=
